<?xml version="1.0" encoding="UTF-8" standalone="no"?>
<!-- Created with Inkscape (http://www.inkscape.org/) -->

<svg
   width="40mm"
   height="40mm"
   viewBox="0 0 40 40"
   version="1.1"
   id="svg1"
   xml:space="preserve"
   inkscape:version="1.3.2 (091e20ef0f, 2023-11-25)"
   sodipodi:docname="logo.svg"
   xmlns:inkscape="http://www.inkscape.org/namespaces/inkscape"
   xmlns:sodipodi="http://sodipodi.sourceforge.net/DTD/sodipodi-0.dtd"
   xmlns="http://www.w3.org/2000/svg"
   xmlns:svg="http://www.w3.org/2000/svg"><sodipodi:namedview
     id="namedview1"
     pagecolor="#ffffff"
     bordercolor="#000000"
     borderopacity="0.25"
     inkscape:showpageshadow="2"
     inkscape:pageopacity="0.0"
     inkscape:pagecheckerboard="0"
     inkscape:deskcolor="#d1d1d1"
     inkscape:document-units="mm"
     inkscape:zoom="3.2111514"
     inkscape:cx="101.83263"
     inkscape:cy="61.971541"
     inkscape:window-width="1277"
     inkscape:window-height="953"
     inkscape:window-x="0"
     inkscape:window-y="0"
     inkscape:window-maximized="1"
     inkscape:current-layer="g6" /><defs
     id="defs1" /><g
     inkscape:label="Layer 1"
     inkscape:groupmode="layer"
     id="layer1"><g
       id="g6"
       transform="matrix(0.26458333,0,0,0.26458333,3.5612364,3.170283)"><g
         style="display:inline;opacity:1;fill:#cba6f7;fill-opacity:1"
         id="g3"
         transform="translate(-1.8692383,-0.39162012)"><g
           style="display:inline;fill:#cba6f7;fill-opacity:1;stroke:#ffffff;stroke-width:1.62101;stroke-linecap:round;stroke-miterlimit:4;stroke-dasharray:none;stroke-opacity:1"
           transform="matrix(0.6778654,0,0,0.56141828,-241.07537,-247.27712)"
           id="g1" /><g
           transform="matrix(-0.6945203,0,0,0.56109687,375.02964,-247.42947)"
           style="display:inline;fill:#cba6f7;fill-opacity:1;stroke:#ffffff;stroke-width:1.60191;stroke-linecap:round;stroke-linejoin:round;stroke-miterlimit:4;stroke-dasharray:none;stroke-opacity:1"
           id="g2"><path
             d="m 447.83376,669.09921 c -80.63119,-57.03115 -80.63119,-57.03115 -80.63119,-199.60903 34.55623,0 46.07497,0 80.63119,-28.51558 m 0,228.12461 c 80.6312,-57.03115 80.6312,-57.03115 80.6312,-199.60903 -34.55623,0 -46.07497,0 -80.6312,-28.51558"
             style="fill:#cba6f7;fill-opacity:1;fill-rule:nonzero;stroke:#ffffff;stroke-width:1.60191;stroke-linecap:round;stroke-linejoin:round;stroke-miterlimit:4;stroke-dasharray:none;stroke-opacity:1"
             id="path1" /></g></g><g
         transform="translate(-17.872548,-19.32535)"
         style="display:inline"
         id="g5"><path
           d="M 79.543946,43.452946 H 51.594244 V 74.90442 L 70.196891,91.684589 V 61.160472 h 9.932558 c 6.313085,0 9.427269,3.035468 9.427269,7.926404 v 23.356393 c 0,4.89018 -2.946255,8.179051 -9.427269,8.179051 H 51.50953 v 17.79149 h 27.946703 c 14.983175,0.0847 29.040477,-7.42187 29.040477,-24.621111 V 68.664804 C 108.58068,51.125957 94.523368,43.452946 79.543946,43.452946 Z"
           fill="#7289da"
           id="path1-5"
           style="fill:#ffffff;fill-opacity:1;stroke-width:0.749684" /></g></g></g></svg>
